<svg xmlns="http://www.w3.org/2000/svg" xmlns:xlink="http://www.w3.org/1999/xlink" width="880.956" height="820.994" viewBox="0 0 880.956 820.994">
  <defs>
    <clipPath id="clip-path">
      <circle id="Ellipse_2" data-name="Ellipse 2" cx="97.207" cy="97.207" r="97.207" transform="translate(0 0)" fill="#fff"/>
    </clipPath>
  </defs>
  <g id="G.h_Flag_2_Transparent_Background" data-name="G.h_Flag 2 Transparent Background" transform="translate(-707.01 -576)">
    <path id="Path_7" data-name="Path 7" d="M981.494,576q119.551,0,168.971,44.879c5.1-5.8,10.248-17.353,15.368-36.826h62.131l-29.728,144.655h-35.268c-11.128-41.506-30.75-72.473-61.812-92.867q-46.745-30.96-112.422-30.96-122.05,0-162.4,124.877-24.383,75.129-11.8,176.015c11.8,93.68,50.25,154.144,116.872,177.4,27.262,9.266,93.5,13.154,137.774-26.415,6.231-6.258,9.686-11.819,10.464-16.7l22.643-133.92h-90.829V878.979h163.749l-32.64,162.333c-5.019,25.379-2.113,44.026-43.186,58.927a376.975,376.975,0,0,1-127.336,21.918c-43.525,0-66.872-4.328-102.492-18.478-35.505-14.379-62.137-36.711-86.738-61.521q-75.8-76.534-75.806-191,0-114.792,76.138-193.036,50.433-52.194,125.981-72.006C934.637,579.373,958.682,576,981.494,576Z" transform="translate(0 0)" fill="#005bbb"/>
    <g id="Mask_Group_1" data-name="Mask Group 1" transform="translate(879.413 1202.58)" clip-path="url(#clip-path)">
      <g id="Group_7" data-name="Group 7" transform="translate(-55.717 -43.147)">
        <rect id="Rectangle_5" data-name="Rectangle 5" width="306.057" height="140.07" fill="#005bbb"/>
        <rect id="Rectangle_6" data-name="Rectangle 6" width="306.057" height="140.07" transform="translate(0 140.077)" fill="#ebca26"/>
      </g>
    </g>
    <path id="Path_8" data-name="Path 8" d="M1415.752,1386.084l-67.732,10.654L1518.6,587.89h86.412c-53.691,158.743-125.494,453.75-167.183,614.4h8.568l17.143-47.019q57.606-161.358,125-209.441,32.064-21.376,52.316-27.77,21.376-6.421,52.431-6.414,32.054,0,54.429,25.643,22.544,25.654,22.487,71.6t-52.431,168.836q-51.246,122.883-51.206,157.084t26.72,34.191q20.2,0,43.741-26.713,23.54-27.767,40.639-78.007l17.143,4.274q-46.055,130.371-119.778,130.371c-44.073,0-66.228-24.221-66.228-72.663q0-30.987,48.09-153.88,49.255-122.882,49.2-158.147,0-67.329-49.2-67.326-53.43,0-115.435,86.555C1493.806,1102.551,1452.815,1220.094,1415.752,1386.084Z" transform="translate(-206.841 -3.837)" fill="#eaca29"/>
  </g>
</svg>
