<?xml version="1.0" standalone="no"?>
<!DOCTYPE svg PUBLIC "-//W3C//DTD SVG 20010904//EN"
 "http://www.w3.org/TR/2001/REC-SVG-20010904/DTD/svg10.dtd">
<svg version="1.0" xmlns="http://www.w3.org/2000/svg"
 width="977.000000pt" height="977.000000pt" viewBox="0 0 977.000000 977.000000"
 preserveAspectRatio="xMidYMid meet">
<metadata>
Created by potrace 1.14, written by Peter Selinger 2001-2017
</metadata>
<g transform="translate(0.000000,977.000000) scale(0.100000,-0.100000)"
fill="#000000" stroke="none">
<path d="M3067 8904 c-1 -1 -35 -4 -75 -5 -39 -2 -72 -6 -72 -9 0 -3 -17 -5
-38 -6 -57 -1 -182 -21 -287 -47 -11 -3 -42 -10 -70 -17 -27 -6 -70 -18 -95
-26 -25 -9 -53 -17 -63 -19 -18 -4 -94 -32 -152 -56 -16 -6 -34 -13 -40 -14
-48 -12 -377 -180 -383 -197 -2 -4 -8 -8 -14 -8 -5 0 -58 -33 -116 -72 -100
-68 -127 -88 -156 -113 -6 -6 -39 -33 -73 -60 -87 -69 -275 -262 -362 -370
-40 -49 -79 -98 -87 -107 -7 -10 -10 -18 -6 -18 4 0 2 -4 -4 -8 -20 -13 -144
-211 -201 -321 -103 -200 -205 -476 -239 -644 -25 -126 -42 -231 -48 -290 -3
-26 -8 -52 -11 -57 -3 -6 -1 -10 5 -10 6 0 8 -5 4 -12 -4 -7 -9 -35 -10 -63
-2 -27 -4 -52 -4 -55 -8 -24 3 -348 14 -455 26 -241 108 -557 196 -760 34 -79
116 -243 128 -257 8 -10 11 -18 6 -18 -5 0 -4 -4 1 -8 13 -9 75 -111 75 -123
0 -5 5 -9 10 -9 6 0 10 -7 10 -15 0 -8 5 -15 10 -15 6 0 10 -6 10 -14 0 -8 4
-16 8 -18 4 -1 23 -25 42 -53 41 -58 67 -90 97 -122 13 -13 23 -27 23 -31 0
-11 225 -238 284 -287 27 -22 56 -47 65 -56 9 -8 32 -26 51 -39 19 -13 37 -27
40 -31 9 -12 223 -153 274 -181 118 -64 268 -134 361 -168 33 -12 67 -25 75
-30 9 -4 31 -11 50 -16 19 -4 38 -9 43 -10 4 -1 9 -3 12 -4 3 -1 8 -3 13 -5 4
-1 14 -4 22 -8 23 -9 289 -65 345 -71 235 -29 680 -24 910 10 45 7 74 11 125
18 30 4 213 40 260 51 72 17 207 60 275 88 48 19 236 117 251 130 30 27 43 37
49 37 10 0 99 91 129 131 26 35 58 140 70 229 7 49 9 61 25 130 5 25 12 59 15
75 3 17 9 44 12 60 4 17 8 39 10 50 1 11 3 20 4 20 1 0 3 11 5 25 2 14 11 59
20 100 9 41 18 84 20 95 1 11 3 20 5 20 1 0 3 9 5 20 1 11 5 35 9 53 3 17 8
46 11 64 3 17 8 34 10 37 2 4 6 27 10 51 9 55 10 60 18 85 3 11 8 37 11 57 3
21 11 59 17 85 6 27 13 62 16 78 7 42 11 60 13 60 1 0 3 9 5 20 1 11 6 34 9
50 4 17 9 44 11 60 2 17 9 50 16 75 6 25 12 56 14 70 3 22 14 78 30 150 3 14
8 41 11 60 3 19 8 38 11 43 2 4 -13 7 -34 7 -47 1 -1499 1 -1569 0 l-50 0 0
-132 1 -133 440 -2 c242 -1 447 -2 455 -2 16 -1 19 -28 7 -66 -3 -11 -9 -38
-12 -60 -4 -22 -8 -52 -11 -67 -4 -27 -6 -42 -21 -123 -4 -22 -7 -52 -7 -67
-1 -16 -4 -28 -8 -28 -4 0 -7 -8 -6 -17 0 -18 -6 -60 -15 -98 -3 -11 -8 -40
-11 -65 -3 -25 -8 -56 -11 -70 -2 -13 -7 -40 -10 -60 -3 -20 -8 -47 -10 -60
-3 -14 -10 -52 -15 -85 -5 -33 -12 -71 -15 -85 -5 -24 -8 -45 -20 -115 -52
-313 -51 -309 -65 -335 -34 -64 -142 -163 -241 -223 -73 -44 -163 -86 -199
-93 -8 -2 -23 -7 -35 -13 -52 -25 -238 -66 -356 -77 -96 -10 -379 -10 -444 -1
-90 13 -214 46 -298 79 -75 29 -245 120 -257 137 -3 4 -21 18 -40 31 -62 43
-160 135 -160 151 0 5 -4 7 -10 4 -5 -3 -10 -3 -10 2 0 4 -12 22 -26 38 -57
67 -69 82 -79 97 -5 8 -29 44 -53 79 -37 57 -181 327 -184 346 -1 8 -12 39
-29 78 -11 27 -88 261 -94 289 -5 22 -42 176 -50 211 -3 11 -7 34 -9 50 -3 17
-7 42 -10 55 -4 14 -8 39 -10 55 -3 17 -7 41 -10 55 -7 32 -23 170 -31 270 -2
25 -4 45 -5 45 -11 0 -16 523 -6 635 4 41 9 104 12 140 5 76 10 112 30 240 4
19 7 46 9 60 2 14 4 26 5 28 3 3 5 9 15 67 4 28 10 55 11 60 2 6 5 21 8 35 64
294 247 705 378 850 9 10 14 21 11 23 -6 7 263 277 276 277 6 0 22 11 37 25
15 14 33 25 40 25 8 0 14 4 14 8 0 5 12 15 28 23 15 8 29 16 32 19 12 13 203
101 230 107 17 3 30 10 30 16 0 6 2 8 6 5 3 -3 26 1 52 9 26 8 56 17 67 18 11
2 22 4 25 6 3 1 10 3 15 4 6 1 28 5 50 10 22 5 51 9 65 11 14 1 25 3 25 4 0 7
196 22 283 21 81 0 270 -9 312 -16 14 -1 48 -6 75 -9 49 -6 72 -10 118 -22 12
-3 29 -7 37 -8 43 -7 96 -19 105 -25 6 -3 20 -7 32 -9 13 -1 43 -11 68 -22 25
-11 45 -17 45 -14 0 3 12 -1 28 -9 15 -8 68 -34 117 -58 156 -74 290 -171 414
-298 70 -73 192 -229 188 -242 -1 -4 5 -15 14 -25 51 -59 151 -305 174 -427
l7 -37 189 0 c103 0 190 3 192 8 3 4 8 27 11 52 3 25 9 56 12 70 3 14 8 36 9
50 2 14 4 25 5 25 2 0 5 14 13 60 3 17 9 44 12 60 4 17 13 62 20 100 8 39 17
81 20 95 3 14 8 41 11 60 3 19 12 65 20 102 7 37 16 82 19 100 3 17 8 34 10
37 2 4 6 25 9 47 4 22 9 51 12 64 2 14 11 57 19 95 8 39 17 81 20 95 9 43 26
134 32 165 5 34 19 99 26 131 5 21 4 21 -309 20 l-315 0 -23 -76 c-13 -41 -40
-130 -61 -197 -23 -72 -42 -119 -49 -117 -6 3 -22 20 -36 38 -14 19 -27 33
-28 31 -3 -3 -23 11 -56 40 -16 15 -95 65 -101 65 -3 0 -22 10 -43 23 -38 24
-202 95 -232 101 -3 1 -9 4 -15 7 -5 4 -26 10 -45 14 -19 4 -39 10 -45 13 -5
4 -14 7 -20 8 -5 1 -44 11 -85 22 -68 19 -218 49 -280 58 -14 1 -41 5 -60 8
-64 10 -124 17 -190 22 -36 2 -96 7 -135 10 -70 5 -464 12 -468 8z"/>
<path d="M6479 8818 c0 -2 -2 -12 -3 -23 -2 -11 -11 -55 -20 -98 -10 -42 -16
-84 -13 -91 3 -8 2 -16 -4 -18 -5 -2 -12 -17 -14 -33 -3 -17 -8 -41 -10 -55
-3 -14 -8 -38 -11 -55 -4 -16 -8 -39 -9 -50 -2 -11 -4 -21 -5 -22 -3 -3 -4 -6
-13 -53 -4 -19 -10 -46 -13 -60 -6 -29 -12 -61 -18 -92 -2 -13 -10 -45 -16
-73 -6 -27 -13 -61 -15 -75 -2 -14 -9 -47 -15 -75 -6 -27 -13 -59 -16 -70 -2
-11 -6 -31 -9 -45 -3 -14 -8 -36 -10 -50 -12 -57 -25 -117 -30 -140 -3 -14 -8
-38 -11 -55 -3 -16 -9 -48 -15 -70 -5 -22 -12 -51 -14 -65 -2 -14 -7 -36 -10
-50 -3 -14 -8 -38 -11 -54 -2 -16 -7 -32 -9 -35 -2 -4 -6 -27 -10 -51 -3 -25
-8 -53 -11 -62 -5 -18 -13 -51 -20 -88 -2 -14 -11 -56 -20 -95 -23 -109 -29
-139 -38 -187 -3 -13 -11 -55 -20 -93 -8 -39 -17 -83 -20 -98 -3 -15 -8 -37
-11 -49 -3 -13 -7 -34 -10 -48 -10 -50 -19 -95 -20 -100 -1 -3 -7 -30 -13 -60
-7 -30 -14 -64 -16 -75 -3 -11 -12 -56 -21 -100 -9 -44 -19 -89 -21 -100 -8
-40 -34 -171 -39 -190 -31 -139 -44 -209 -39 -216 3 -5 1 -9 -4 -9 -5 0 -9 -6
-10 -12 -3 -28 -11 -74 -17 -98 -3 -14 -8 -35 -11 -47 -2 -13 -6 -33 -8 -45
-7 -31 -13 -60 -30 -143 -9 -38 -18 -81 -20 -95 -3 -14 -12 -59 -21 -100 -9
-41 -19 -86 -21 -100 -3 -14 -7 -32 -9 -40 -2 -8 -7 -28 -10 -45 -3 -16 -19
-93 -35 -170 -30 -140 -42 -199 -43 -222 0 -7 -3 -13 -6 -13 -3 0 -6 -10 -7
-22 0 -13 -4 -36 -8 -53 -4 -16 -9 -42 -11 -57 -2 -15 -8 -44 -14 -65 -8 -30
-37 -171 -66 -314 -2 -9 -13 -61 -25 -115 -20 -93 -24 -112 -34 -166 -2 -13
-7 -34 -10 -48 -3 -14 -20 -92 -37 -175 -17 -82 -32 -157 -34 -165 -2 -8 -8
-35 -14 -60 -5 -25 -13 -60 -16 -79 -3 -19 -8 -37 -10 -40 -2 -4 -6 -25 -9
-47 -4 -22 -9 -51 -12 -64 -3 -14 -7 -34 -9 -45 -2 -11 -4 -20 -5 -20 -1 0 -3
-9 -5 -20 -2 -11 -7 -36 -10 -55 -4 -19 -9 -46 -11 -60 -3 -14 -9 -41 -14 -60
-5 -19 -12 -53 -16 -75 -3 -22 -9 -42 -13 -45 -3 -3 -7 -16 -7 -30 -2 -34 -13
-93 -29 -160 -7 -30 -16 -68 -18 -85 -3 -16 -13 -64 -22 -105 -9 -41 -18 -86
-20 -100 -2 -14 -4 -25 -5 -25 -2 0 -6 -17 -13 -60 -3 -16 -8 -37 -11 -45 -3
-8 -7 -31 -10 -50 -3 -19 -8 -44 -10 -55 -3 -11 -14 -67 -26 -125 -12 -58 -24
-112 -27 -120 -3 -8 -7 -26 -8 -40 -3 -20 -27 -136 -81 -385 -2 -11 -6 -32 -9
-48 -3 -15 -12 -60 -21 -100 -16 -75 -17 -79 -34 -162 -6 -27 -13 -61 -15 -75
-18 -83 -25 -124 -23 -126 7 -6 46 -7 68 -1 14 4 48 9 75 12 28 3 64 7 80 10
17 2 54 7 84 10 30 3 69 8 86 11 18 2 47 6 66 8 19 2 59 7 89 11 30 4 66 8 79
9 16 1 25 9 27 21 3 19 10 55 14 65 1 3 2 8 2 11 -1 4 3 22 9 40 6 19 12 45
15 59 3 14 16 70 30 124 13 55 26 109 29 120 2 12 4 21 5 21 2 0 5 12 13 50 3
11 12 47 21 80 15 54 19 71 31 125 2 8 4 15 5 15 1 0 3 11 6 25 2 14 7 32 11
40 7 17 9 24 16 60 3 14 24 88 46 165 23 77 43 148 46 159 2 10 12 44 21 75 9
31 18 63 19 71 2 8 4 17 5 20 1 3 2 8 1 13 0 4 3 7 7 7 4 0 8 9 9 21 1 11 23
86 49 167 25 81 47 152 49 157 1 6 7 21 12 35 6 14 14 41 18 60 4 19 10 40 13
45 4 6 8 15 9 20 6 25 35 111 42 125 5 9 12 31 16 50 4 19 11 41 16 50 9 16
60 158 63 175 1 6 4 15 7 20 4 6 12 28 19 50 7 22 20 56 28 75 9 19 16 37 17
40 1 3 5 13 9 22 4 9 9 22 10 30 2 7 7 22 11 33 155 378 258 602 331 716 13
21 24 41 24 43 0 3 25 42 55 86 30 44 55 85 55 90 0 4 3 10 8 12 4 2 34 39 66
83 33 44 65 87 73 95 7 8 23 26 34 40 60 72 103 121 157 175 87 89 192 185
202 185 5 0 10 3 12 8 5 13 96 82 107 82 6 0 11 4 11 9 0 5 12 16 28 23 38 20
76 42 82 48 9 10 112 58 170 79 50 18 91 29 130 35 9 1 20 4 25 7 12 7 166 3
213 -4 61 -10 163 -66 213 -116 26 -27 45 -51 42 -55 -4 -3 -2 -6 4 -6 24 0
84 -168 98 -275 8 -61 12 -245 5 -245 -3 0 -5 -17 -5 -37 3 -58 -22 -178 -66
-315 -22 -70 -40 -130 -40 -133 0 -2 -8 -25 -19 -50 -11 -25 -19 -46 -18 -48
1 -1 -7 -27 -17 -57 -11 -30 -20 -57 -20 -60 -1 -3 -4 -12 -8 -20 -8 -21 -51
-153 -53 -165 -1 -5 -16 -47 -33 -92 -17 -46 -28 -83 -25 -83 4 0 1 -6 -5 -14
-7 -8 -14 -22 -16 -32 -2 -11 -29 -91 -60 -179 -31 -88 -62 -178 -69 -200 -8
-22 -30 -85 -50 -140 -20 -55 -39 -111 -42 -124 -3 -14 -8 -29 -12 -35 -4 -6
-7 -13 -7 -16 0 -3 -6 -18 -12 -35 -32 -82 -106 -292 -106 -302 0 -7 -4 -13
-9 -13 -4 0 -7 -3 -7 -7 1 -5 0 -11 -1 -15 -1 -5 -3 -11 -4 -15 -1 -8 -18 -53
-36 -98 -13 -33 -120 -333 -156 -435 -44 -130 -54 -197 -54 -375 1 -138 0
-133 32 -265 37 -152 153 -298 288 -363 103 -50 177 -68 300 -72 226 -7 425
82 624 279 88 87 143 152 196 231 19 28 37 51 42 53 4 2 8 9 8 16 0 7 8 21 18
32 9 10 23 30 29 44 7 14 26 48 42 75 42 69 96 178 93 188 -1 4 2 7 8 7 5 0
10 4 10 9 0 5 14 40 31 77 17 37 32 72 34 78 1 6 7 25 14 41 62 151 63 157 50
170 -12 10 -76 28 -147 41 -7 1 -16 -5 -19 -14 -8 -24 -83 -212 -96 -242 -5
-14 -10 -28 -9 -32 1 -5 -2 -8 -8 -8 -5 0 -10 -5 -10 -11 0 -33 -148 -295
-243 -429 -58 -83 -190 -204 -263 -242 -92 -49 -177 -64 -254 -45 -14 3 -34 8
-45 11 -80 17 -142 91 -161 193 -14 75 -11 232 6 306 6 27 8 53 5 58 -4 5 -1
9 6 9 7 0 10 3 7 6 -3 3 -2 21 4 41 5 19 11 43 13 52 2 9 9 30 16 46 6 17 13
37 15 45 2 8 7 23 13 35 9 19 38 90 66 165 7 19 29 74 48 122 20 47 33 89 30
92 -4 3 0 6 7 6 7 0 11 3 8 6 -3 3 20 70 52 149 32 79 55 146 52 149 -3 3 0 6
6 6 7 0 12 6 12 14 0 8 14 47 31 87 16 41 32 79 33 84 3 10 8 25 23 63 3 9 7
19 7 22 1 3 30 77 65 165 35 88 64 166 64 173 0 6 4 12 8 12 4 0 10 12 13 26
7 25 158 420 176 459 28 60 146 401 156 450 1 6 9 37 17 70 17 64 25 102 32
150 3 17 7 41 10 55 24 108 24 387 0 504 -6 28 -32 136 -40 166 -24 90 -120
246 -195 320 -202 198 -511 267 -880 195 -45 -9 -154 -42 -209 -64 -64 -26
-184 -82 -191 -90 -3 -3 -21 -15 -40 -25 -50 -27 -194 -124 -219 -147 -11 -10
-23 -19 -26 -19 -3 0 -13 -8 -24 -17 -10 -10 -48 -45 -85 -77 -135 -120 -243
-239 -380 -421 -25 -33 -50 -65 -56 -72 -5 -7 -10 -15 -10 -18 0 -6 -41 -67
-51 -75 -4 -3 -17 -25 -30 -49 -13 -24 -29 -51 -34 -60 -29 -46 -107 -187
-108 -196 -1 -5 -5 -12 -8 -15 -7 -7 -143 -291 -186 -390 -9 -19 -21 -49 -29
-65 -14 -32 -36 -87 -39 -95 -1 -3 -6 -16 -12 -30 -6 -14 -23 -54 -37 -90 -15
-36 -34 -79 -42 -97 -8 -17 -14 -37 -14 -45 0 -8 -4 -18 -8 -23 -5 -6 -19 -39
-32 -75 -12 -36 -27 -76 -33 -90 -5 -14 -11 -29 -13 -35 -1 -5 -8 -23 -15 -40
-6 -16 -13 -34 -15 -40 -1 -5 -16 -45 -32 -87 -17 -43 -28 -78 -25 -78 3 0 1
-6 -4 -13 -6 -6 -25 -59 -43 -117 -19 -58 -35 -107 -37 -109 -4 -5 -76 -9 -85
-4 -3 1 12 72 33 156 22 83 41 161 44 172 2 11 4 20 5 20 1 0 3 7 5 15 2 8 9
35 16 60 6 25 13 52 14 60 1 8 5 22 8 30 6 18 19 67 24 95 2 11 6 27 10 35 3
8 7 22 8 30 1 8 8 35 15 60 15 50 16 54 23 90 3 14 29 113 57 220 28 107 53
204 56 215 13 67 17 81 22 90 3 5 7 16 8 25 1 8 25 105 53 215 29 110 54 207
56 215 1 8 8 35 15 60 7 25 14 55 16 67 2 12 9 34 14 48 5 14 7 25 5 25 -2 0
0 12 6 28 10 26 14 39 25 92 3 14 7 32 9 40 2 8 4 15 5 15 1 0 3 7 5 15 2 8
22 89 45 180 23 91 43 172 45 180 2 8 4 15 5 15 1 0 4 11 14 60 1 6 5 16 9 23
5 6 6 12 3 12 -2 0 4 29 14 64 10 36 16 67 12 70 -3 3 -1 6 4 6 5 0 10 8 11
18 0 9 3 26 6 37 3 11 24 94 47 185 23 91 44 172 45 180 2 8 4 15 5 15 1 0 3
7 5 15 2 8 6 25 9 38 3 12 8 30 10 40 2 9 18 69 35 132 18 63 34 124 36 135 3
11 21 76 41 145 19 69 37 135 39 146 2 12 8 31 14 43 7 11 10 21 7 21 -2 0 10
44 26 98 16 53 30 104 30 112 0 8 5 21 11 28 5 7 7 15 4 19 -4 3 -1 15 5 26 6
11 16 43 23 71 7 28 23 83 34 121 22 72 24 79 36 130 4 17 10 35 14 40 3 6 7
17 8 25 1 8 35 121 74 250 73 242 97 324 104 350 2 8 4 16 5 18 2 1 3 5 4 10
2 4 8 27 16 52 7 25 14 50 16 55 1 6 16 53 32 105 17 52 47 149 67 215 21 66
51 161 67 210 16 50 31 97 33 105 2 8 10 36 18 63 15 46 15 47 -6 48 -86 3
-847 9 -848 7z"/>
<path d="M3047 2654 c-2 -2 -21 -6 -43 -8 -230 -24 -467 -164 -616 -362 -21
-27 -41 -54 -45 -59 -5 -6 -17 -28 -28 -50 -11 -22 -24 -43 -30 -47 -5 -4 -6
-8 -1 -8 4 0 1 -11 -8 -25 -9 -14 -14 -25 -10 -25 4 0 2 -6 -3 -12 -10 -13
-32 -73 -38 -106 -2 -9 -4 -17 -5 -17 -1 0 -3 -9 -5 -20 -2 -11 -7 -38 -12
-60 -9 -49 -9 -255 0 -310 13 -74 15 -81 42 -159 97 -282 300 -488 580 -589
39 -13 90 -28 115 -32 25 -4 54 -9 65 -11 29 -6 206 -6 235 0 13 3 41 8 62 11
67 10 218 67 251 93 9 9 17 11 17 6 0 -5 4 -4 8 1 4 6 32 27 63 47 73 47 182
157 237 236 23 35 42 65 42 68 0 2 11 22 25 44 14 22 25 49 25 60 0 11 4 20 9
20 5 0 12 15 16 33 4 17 9 37 11 42 2 6 11 42 21 80 24 104 22 385 -4 428 -3
5 -7 22 -10 39 -7 48 -68 183 -117 261 -63 101 -237 277 -275 277 -6 0 -11 5
-11 10 0 6 -6 10 -14 10 -8 0 -16 3 -18 8 -5 13 -143 72 -215 93 -105 30 -263
45 -263 25 0 -7 -3 -8 -8 -1 -7 10 -38 16 -45 9z"/>
</g>
</svg>
